HIERARCHY
ROOT SpineBase
{
  OFFSET 0.000000 0.000000 0.000000
  CHANNELS 6 Xposition Yposition Zposition Zrotation Xrotation Yrotation
  JOINT SpineMid
  {
    OFFSET 0.000000 24.542817 0.000000
    CHANNELS 3 Zrotation Xrotation Yrotation
    JOINT SpineShoulder
    {
      OFFSET -0.269880 18.290438 -0.613066
      CHANNELS 3 Zrotation Xrotation Yrotation
      JOINT Neck
      {
        OFFSET -0.178540 6.067327 -0.501051
        CHANNELS 3 Zrotation Xrotation Yrotation
        JOINT Head
        {
          OFFSET 2.614922 10.989716 -0.509121
          CHANNELS 3 Zrotation Xrotation Yrotation
          End Site
          {
            OFFSET 0 0 0
          }
        }
      }
      JOINT ShoulderLeft
      {
        OFFSET -11.553685 -3.507641 -6.791342
        CHANNELS 3 Zrotation Xrotation Yrotation
        JOINT ElbowLeft
        {
          OFFSET -0.618559 -20.613571 -3.669711
          CHANNELS 3 Zrotation Xrotation Yrotation
          JOINT WristLeft
          {
            OFFSET 9.006594 -17.493601 -3.460936
            CHANNELS 3 Zrotation Xrotation Yrotation
            JOINT HandLeft
            {
              OFFSET 4.877065 -5.780819 1.205700
              CHANNELS 3 Zrotation Xrotation Yrotation
              JOINT HandTipLeft
              {
                OFFSET 3.696759 -4.556362 -0.854510
                CHANNELS 3 Zrotation Xrotation Yrotation
                End Site
                {
                  OFFSET 0 0 0
                }
              }
              JOINT ThumbLeft
              {
                OFFSET -1.032865 -1.834486 -1.188748
                CHANNELS 3 Zrotation Xrotation Yrotation
                End Site
                {
                  OFFSET 0 0 0
                }
              }
            }
          }
        }
      }
      JOINT ShoulderRight
      {
        OFFSET 12.073969 -3.970178 4.238135
        CHANNELS 3 Zrotation Xrotation Yrotation
        JOINT ElbowRight
        {
          OFFSET 3.301057 -22.831438 2.356459
          CHANNELS 3 Zrotation Xrotation Yrotation
          JOINT WristRight
          {
            OFFSET -2.918879 -17.662660 -10.970084
            CHANNELS 3 Zrotation Xrotation Yrotation
            JOINT HandRight
            {
              OFFSET -3.176377 -3.936681 -4.806797
              CHANNELS 3 Zrotation Xrotation Yrotation
              JOINT HandTipRight
              {
                OFFSET -1.451041 -4.883474 -2.965555
                CHANNELS 3 Zrotation Xrotation Yrotation
                End Site
                {
                  OFFSET 0 0 0
                }
              }
              JOINT ThumbRight
              {
                OFFSET -1.587317 -4.136663 -1.773462
                CHANNELS 3 Zrotation Xrotation Yrotation
                End Site
                {
                  OFFSET 0 0 0
                }
              }
            }
          }
        }
      }
    }
  }
  JOINT HipLeft
  {
    OFFSET -5.726600 1.206705 -5.132397
    CHANNELS 3 Zrotation Xrotation Yrotation
    JOINT KneeLeft
    {
      OFFSET -3.504632 -36.203427 5.957016
      CHANNELS 3 Zrotation Xrotation Yrotation
      JOINT AnkleLeft
      {
        OFFSET -1.493881 -31.733366 10.163680
        CHANNELS 3 Zrotation Xrotation Yrotation
        JOINT FootLeft
        {
          OFFSET 3.355081 -3.544653 -10.546335
          CHANNELS 3 Zrotation Xrotation Yrotation
          End Site
          {
            OFFSET 0 0 0
          }
        }
      }
    }
  }
  JOINT HipRight
  {
    OFFSET 4.289044 -0.122914 -0.528542
    CHANNELS 3 Zrotation Xrotation Yrotation
    JOINT KneeRight
    {
      OFFSET 0.284898 -36.474865 9.998384
      CHANNELS 3 Zrotation Xrotation Yrotation
      JOINT AnkleRight
      {
        OFFSET -5.628871 -31.512562 9.597339
        CHANNELS 3 Zrotation Xrotation Yrotation
        JOINT FootRight
        {
          OFFSET -4.069202 -6.457336 -4.165646
          CHANNELS 3 Zrotation Xrotation Yrotation
          End Site
          {
            OFFSET 0 0 0
          }
        }
      }
    }
  }
}
MOTION
Frames: 6
Frame Time: 0.033333
72.463708 75.067325 307.495568 0.903774 -1.577763 -30.055582 -0.097421 -0.115006 30.071780 -0.163415 0.345165 0.010644 -1.159045 6.523035 -1.241371 0.000000 0.000000 0.000000 -0.404364 0.252663 -0.011082 4.033890 -3.844717 -3.204986 -1.685173 1.414606 1.109432 3.325575 -7.803507 -7.465869 0.000000 0.000000 0.000000 0.000000 0.000000 0.000000 0.906444 3.489150 0.406577 -0.334366 -1.946943 -1.238182 1.587251 -0.690256 -2.280442 -7.657583 1.626673 5.561728 0.000000 0.000000 0.000000 0.000000 0.000000 0.000000 -2.357299 0.386764 29.940466 0.942393 0.064191 0.148457 1.066750 -0.837267 -4.008891 0.000000 0.000000 0.000000 -1.572625 0.912686 30.080553 -0.000000 0.000000 0.000000 1.951122 0.359758 -1.504644 0.000000 0.000000 0.000000
72.467913 75.071853 307.494348 0.963821 -1.568375 -30.078894 -0.093339 -0.094413 30.098400 -0.152649 0.348560 0.015158 -1.409185 6.378634 -1.217762 0.000000 0.000000 0.000000 -0.476304 0.199981 -0.019681 4.050860 -3.920938 -3.257848 -1.433830 1.348155 1.069435 2.211488 -6.051933 -6.083908 0.000000 0.000000 0.000000 0.000000 0.000000 0.000000 0.891398 3.470688 0.405869 -0.197909 -2.065250 -1.350751 0.699953 0.219515 -1.990208 -6.562055 1.060056 5.006317 0.000000 0.000000 0.000000 0.000000 0.000000 0.000000 -2.366661 0.351045 29.970685 0.907715 0.080054 0.141102 1.094590 -0.842697 -4.097283 0.000000 0.000000 0.000000 -1.620242 0.873808 30.104442 -0.000000 0.000000 0.000000 1.187452 0.737888 -1.241604 0.000000 0.000000 0.000000
72.476228 75.079226 307.498280 1.026209 -1.584994 -30.045710 -0.100994 -0.098121 30.067928 -0.151043 0.332975 0.017166 -1.548847 6.538377 -1.247907 0.000000 0.000000 0.000000 -0.532247 0.241100 -0.022840 3.972962 -4.327787 -3.435515 0.242886 2.182583 1.768038 0.411207 -7.415451 -7.368834 0.000000 0.000000 0.000000 0.000000 0.000000 0.000000 0.886992 3.449199 0.398306 -0.001165 -2.081615 -1.483232 0.546123 -0.414054 -1.386096 -6.623633 1.091831 4.807761 0.000000 0.000000 0.000000 0.000000 0.000000 0.000000 -2.448410 0.384424 29.935250 0.900326 0.027932 0.145338 1.101057 -0.850502 -4.124725 0.000000 0.000000 0.000000 -1.682059 0.857863 30.072499 -0.000000 0.000000 0.000000 0.424861 1.180151 -1.017763 0.000000 0.000000 0.000000
72.488093 75.098044 307.504437 1.088507 -1.602595 -30.066785 -0.107712 -0.104444 30.091700 -0.149019 0.314485 0.019075 -1.665687 6.767843 -1.292613 0.000000 0.000000 0.000000 -0.596416 0.279443 -0.023822 3.905315 -4.610996 -3.561782 1.967230 2.935317 2.392267 -1.567798 -9.590657 -9.321599 0.000000 0.000000 0.000000 0.000000 0.000000 0.000000 0.865103 3.476100 0.395210 0.205015 -2.157806 -1.611566 0.205364 -0.761464 -0.764900 -6.237827 1.468983 4.232983 0.000000 0.000000 0.000000 0.000000 0.000000 0.000000 -2.522091 0.369961 29.955409 0.908468 0.020426 0.147463 1.117910 -0.856409 -4.180996 0.000000 0.000000 0.000000 -1.745106 0.841233 30.094822 -0.000000 0.000000 0.000000 -0.276186 1.512685 -0.763808 0.000000 0.000000 0.000000
72.509872 75.111530 307.527881 1.153464 -1.637802 -30.102355 -0.130949 -0.119201 30.129683 -0.154103 0.293451 0.019522 -1.768695 6.938600 -1.316132 0.000000 0.000000 0.000000 -0.606527 0.321747 -0.028021 3.842940 -4.757576 -3.631102 3.176003 3.343750 2.730473 -2.952178 -10.482444 -10.227951 0.000000 0.000000 0.000000 0.000000 0.000000 0.000000 0.890641 3.369066 0.375459 0.355953 -2.108303 -1.700061 -0.340115 -0.773906 -0.134907 -5.460896 0.972150 3.659436 0.000000 0.000000 0.000000 0.000000 0.000000 0.000000 -2.664799 0.374416 29.980364 0.963814 -0.020771 0.160904 1.108952 -0.852700 -4.150485 0.000000 0.000000 0.000000 -1.819486 0.837986 30.132150 -0.000000 0.000000 0.000000 -0.582560 1.777950 -0.726038 0.000000 0.000000 0.000000
72.538681 75.131358 307.560244 1.218399 -1.675419 -30.208973 -0.161647 -0.127550 30.238736 -0.158526 0.286292 0.020272 -1.859261 7.138715 -1.352208 0.000000 0.000000 0.000000 -0.625037 0.336695 -0.030391 3.812277 -4.813224 -3.665399 3.785318 2.820773 2.360558 -4.197319 -10.721823 -10.443161 0.000000 0.000000 0.000000 0.000000 0.000000 0.000000 0.966459 3.328371 0.370082 0.379427 -2.007389 -1.783096 -0.772569 -0.709940 0.247423 -5.026825 -0.662796 3.729075 0.000000 0.000000 0.000000 0.000000 0.000000 0.000000 -2.858513 0.368706 30.067464 1.066191 -0.079061 0.183973 1.118254 -0.863715 -4.189749 0.000000 0.000000 0.000000 -1.896089 0.834388 30.240597 -0.000000 0.000000 0.000000 -0.935553 2.141032 -0.716017 0.000000 0.000000 0.000000
